<svg xmlns="http://www.w3.org/2000/svg" viewBox="0 0 500 500"><g id="freepik--background-complete--inject-119"><rect y="382.4" width="500" height="0.25" style="fill:#ebebeb"></rect><rect x="416.78" y="398.49" width="33.12" height="0.25" style="fill:#ebebeb"></rect><rect x="322.53" y="401.21" width="8.69" height="0.25" style="fill:#ebebeb"></rect><rect x="396.59" y="389.21" width="19.19" height="0.25" style="fill:#ebebeb"></rect><rect x="52.46" y="390.89" width="43.19" height="0.25" style="fill:#ebebeb"></rect><rect x="104.56" y="390.89" width="6.33" height="0.25" style="fill:#ebebeb"></rect><rect x="131.47" y="395.11" width="93.68" height="0.25" style="fill:#ebebeb"></rect><path d="M237,337.8H43.91a5.71,5.71,0,0,1-5.7-5.71V60.66A5.71,5.71,0,0,1,43.91,55H237a5.71,5.71,0,0,1,5.71,5.71V332.09A5.71,5.71,0,0,1,237,337.8ZM43.91,55.2a5.46,5.46,0,0,0-5.45,5.46V332.09a5.46,5.46,0,0,0,5.45,5.46H237a5.47,5.47,0,0,0,5.46-5.46V60.66A5.47,5.47,0,0,0,237,55.2Z" style="fill:#ebebeb"></path><path d="M453.31,337.8H260.21a5.72,5.72,0,0,1-5.71-5.71V60.66A5.72,5.72,0,0,1,260.21,55h193.1A5.71,5.71,0,0,1,459,60.66V332.09A5.71,5.71,0,0,1,453.31,337.8ZM260.21,55.2a5.47,5.47,0,0,0-5.46,5.46V332.09a5.47,5.47,0,0,0,5.46,5.46h193.1a5.47,5.47,0,0,0,5.46-5.46V60.66a5.47,5.47,0,0,0-5.46-5.46Z" style="fill:#ebebeb"></path><rect x="59.4" y="294.75" width="376.09" height="87.56" style="fill:#f0f0f0"></rect><rect x="257.02" y="110.18" width="163.56" height="6.51" rx="2.12" style="fill:#e0e0e0"></rect><rect x="266.73" y="115.36" width="144.13" height="127.9" style="fill:#e6e6e6"></rect><rect x="270.34" y="118.86" width="136.73" height="120.95" style="fill:#f0f0f0"></rect><polygon points="302.43 118.86 270.34 239.55 270.34 182.84 287.29 118.86 302.43 118.86" style="fill:#fff"></polygon><polygon points="313.8 118.86 281.43 239.82 276.26 239.82 308.63 118.86 313.8 118.86" style="fill:#fff"></polygon><polygon points="407.07 195.19 407.07 214.51 400.52 239.82 395.36 239.82 407.07 195.19" style="fill:#fff"></polygon><rect x="315.73" y="116.69" width="2.3" height="125.83" style="fill:#e6e6e6"></rect><rect x="360.36" y="116.69" width="2.3" height="125.83" style="fill:#e6e6e6"></rect><path d="M387.38,112.26s3.31,43.27,22.38,65.32c0,0-13.89,55.69-13.88,75.11l25.81-4.77-9.3-70,4.45-65.65Z" style="fill:#e0e0e0"></path><path d="M290.22,112.26s-3.31,43.27-22.38,65.32c0,0,13.89,55.69,13.88,75.11l-25.81-4.77,9.3-70-4.45-65.65Z" style="fill:#e0e0e0"></path><rect x="59.4" y="285" width="376.09" height="7.34" style="fill:#f0f0f0"></rect><rect x="77.39" y="294.84" width="1.55" height="87.38" style="fill:#e0e0e0"></rect><rect x="97.18" y="294.84" width="1.55" height="87.38" style="fill:#e0e0e0"></rect><rect x="116.96" y="294.84" width="1.55" height="87.38" style="fill:#e0e0e0"></rect><rect x="136.75" y="294.84" width="1.55" height="87.38" style="fill:#e0e0e0"></rect><rect x="156.53" y="294.84" width="1.55" height="87.38" style="fill:#e0e0e0"></rect><rect x="176.32" y="294.84" width="1.55" height="87.38" style="fill:#e0e0e0"></rect><rect x="196.1" y="294.84" width="1.55" height="87.38" style="fill:#e0e0e0"></rect><rect x="215.89" y="294.84" width="1.55" height="87.38" style="fill:#e0e0e0"></rect><rect x="235.67" y="294.84" width="1.55" height="87.38" style="fill:#e0e0e0"></rect><rect x="255.46" y="294.84" width="1.55" height="87.38" style="fill:#e0e0e0"></rect><rect x="275.25" y="294.84" width="1.55" height="87.38" style="fill:#e0e0e0"></rect><rect x="295.03" y="294.84" width="1.55" height="87.38" style="fill:#e0e0e0"></rect><rect x="314.82" y="294.84" width="1.55" height="87.38" style="fill:#e0e0e0"></rect><rect x="334.6" y="294.84" width="1.55" height="87.38" style="fill:#e0e0e0"></rect><rect x="354.39" y="294.84" width="1.55" height="87.38" style="fill:#e0e0e0"></rect><rect x="374.17" y="294.84" width="1.55" height="87.38" style="fill:#e0e0e0"></rect><rect x="393.96" y="294.84" width="1.55" height="87.38" style="fill:#e0e0e0"></rect><rect x="413.75" y="294.84" width="1.55" height="87.38" style="fill:#e0e0e0"></rect></g><g id="freepik--Shadow--inject-119"><ellipse id="freepik--path--inject-119" cx="250" cy="416.24" rx="193.89" ry="11.32" style="fill:#f5f5f5"></ellipse></g><g id="freepik--first-aid-kit--inject-119"><rect x="132.58" y="137.45" width="60.92" height="83.27" style="fill:#407BFF"></rect><rect x="132.58" y="137.45" width="60.92" height="83.27" style="fill:#fff;opacity:0.2"></rect><rect x="126.4" y="153.62" width="73.27" height="50.92" transform="translate(342.12 16.05) rotate(90)" style="isolation:isolate;opacity:0.4"></rect><polygon points="91.24 135.08 89.98 135.31 89.98 222.78 91.24 223.04 132.36 220.72 132.36 137.45 91.24 135.08" style="fill:#407BFF"></polygon><polygon points="94.85 217.63 94.85 140.55 128.06 142.23 128.06 215.94 94.85 217.63" style="fill:#fff;opacity:0.6000000000000001"></polygon><polygon points="128.06 215.94 129.16 215.88 129.16 142.29 128.06 142.23 128.06 215.94" style="isolation:isolate;opacity:0.2"></polygon><polygon points="91.24 223.04 91.24 135.08 89.98 135.31 89.98 222.78 91.24 223.04" style="isolation:isolate;opacity:0.2"></polygon><polygon points="118.09 177.34 113.66 177.33 113.66 169.42 110.23 169.37 110.23 177.32 105.71 177.31 105.71 180.86 110.23 180.85 110.23 188.8 113.66 188.75 113.66 180.84 118.09 180.83 118.09 177.34" style="fill:#407BFF"></polygon><rect x="132.36" y="147.51" width="0.9" height="13.15" style="fill:#263238"></rect><rect x="132.36" y="197.51" width="0.9" height="13.15" style="fill:#263238"></rect><rect x="138.91" y="162.35" width="48.46" height="2.88" style="fill:#407BFF"></rect><rect x="138.91" y="187.07" width="48.46" height="2.88" style="fill:#407BFF"></rect><path d="M145.35,175.53h3.85a1.14,1.14,0,0,1,1.14,1.14v10.4a0,0,0,0,1,0,0h-6.13a0,0,0,0,1,0,0v-10.4A1.14,1.14,0,0,1,145.35,175.53Z" style="fill:#fff;opacity:0.6000000000000001"></path><rect x="145.53" y="172.04" width="3.49" height="3.49" style="fill:#263238"></rect><rect x="153.21" y="176.52" width="10.02" height="10.48" style="fill:#fff;opacity:0.30000000000000004"></rect><polygon points="171.54 184.43 166.93 184.43 165.93 170.32 172.54 170.32 171.54 184.43" style="fill:#407BFF"></polygon><rect x="166.93" y="184.43" width="4.62" height="2.57" style="fill:#263238"></rect><rect x="176.09" y="174.61" width="8.04" height="12.4" style="fill:#fff;opacity:0.30000000000000004"></rect><rect x="176.09" y="174.61" width="8.04" height="1.32" style="fill:#407BFF"></rect><rect x="142.74" y="201.18" width="18.23" height="14.54" style="fill:#407BFF"></rect><rect x="142.74" y="201.18" width="18.23" height="14.54" style="fill:#fff;opacity:0.30000000000000004"></rect><path d="M168.36,197.46a.25.25,0,0,0-.34-.18,3,3,0,0,0-1.76,2.68c-.06,2.22,2.35,2,2.35,2l2.14,12.59h.52Zm-1.6,2.77a2.53,2.53,0,0,1,1.12-2.34l.62,3.53A1.36,1.36,0,0,1,166.76,200.23Z" style="fill:#263238"></path><path d="M168.26,214.57h.53L170.92,202s2.42.2,2.35-2a3,3,0,0,0-1.75-2.68.24.24,0,0,0-.34.18ZM171,201.42l.63-3.53a2.55,2.55,0,0,1,1.12,2.34A1.37,1.37,0,0,1,171,201.42Z" style="fill:#263238"></path><rect x="177.75" y="200.1" width="1.14" height="12.14" transform="translate(24.61 -18.95) rotate(6.53)" style="fill:#407BFF"></rect><rect x="174.95" y="201.21" width="1.14" height="12.14" style="fill:#407BFF"></rect><rect x="166.53" y="204.09" width="16.09" height="11.63" style="fill:#263238"></rect><rect x="166.53" y="204.09" width="16.09" height="11.63" style="fill:#fff;opacity:0.30000000000000004"></rect><rect x="172.99" y="148.7" width="10.22" height="13.65" style="fill:#fff;opacity:0.30000000000000004"></rect><path d="M162.18,153.05a4.65,4.65,0,1,0,4.65,4.65A4.65,4.65,0,0,0,162.18,153.05Zm0,6.79a2.14,2.14,0,1,1,2.14-2.14A2.14,2.14,0,0,1,162.18,159.84Z" style="fill:#263238"></path><path d="M162.18,153.05a4.65,4.65,0,1,0,4.65,4.65A4.65,4.65,0,0,0,162.18,153.05Zm0,6.79a2.14,2.14,0,1,1,2.14-2.14A2.14,2.14,0,0,1,162.18,159.84Z" style="fill:#fff;opacity:0.30000000000000004"></path><path d="M170.91,155a3.7,3.7,0,1,0,3.7,3.69A3.69,3.69,0,0,0,170.91,155Zm0,5.39a1.7,1.7,0,1,1,1.71-1.7A1.7,1.7,0,0,1,170.91,160.35Z" style="fill:#407BFF"></path><rect x="143.26" y="159.05" width="8.51" height="3.3" style="fill:#fff;opacity:0.6000000000000001"></rect><rect x="144.21" y="155.75" width="8.51" height="3.3" style="fill:#fff;opacity:0.30000000000000004"></rect><rect x="143.26" y="152.44" width="8.51" height="3.3" style="fill:#263238"></rect><rect x="138.91" y="162.35" width="48.46" height="2.88" style="fill:#fff;opacity:0.2"></rect><rect x="138.91" y="187.07" width="48.46" height="2.88" style="fill:#fff;opacity:0.2"></rect></g><g id="freepik--Plant--inject-119"><path d="M96.59,385.09c.15-1,3.65-25.18-3.36-33.51a7.59,7.59,0,0,0-5.82-2.87c-14.15-.33-16.09,11-16.11,11.15l1.67.26c.07-.41,1.74-10,14.4-9.72a5.92,5.92,0,0,1,4.57,2.26c6.52,7.77,3,31.93,3,32.18Z" style="fill:#407BFF"></path><path d="M97.45,384l1.68-.06c0-.22-.56-22.25,10.3-26.8,10.63-4.45,15.42,4.71,15.62,5.1l1.51-.76c-.06-.11-5.67-11-17.79-5.89C96.85,360.57,97.42,383,97.45,384Z" style="fill:#407BFF"></path><path d="M97.4,385.72c0-.35.1-35.19,6.89-45.38,6.52-9.79,17-5.18,17.49-5l.7-1.54c-.13-.05-12.27-5.41-19.59,5.58-7.08,10.61-7.18,44.86-7.18,46.32Z" style="fill:#407BFF"></path><path d="M85.38,349.55s6.18,2.28,4.35,7.65-21.38,14.23-21.38,14.23-8.19-7.5-.67-19.7S85.22,345.7,85.38,349.55Z" style="fill:#407BFF"></path><path d="M104.6,338.5s-4.39-.47-4-3.14,17.06-9.55,26.91,1.57c0,0-6.31,10.84-15.43,11S104.6,338.5,104.6,338.5Z" style="fill:#407BFF"></path><path d="M109.1,356.35s-3-2.44.24-3.63,19.3-.86,19.47,15c0,0-18.68,3.11-21-2.94S109.1,356.35,109.1,356.35Z" style="fill:#407BFF"></path><path d="M85.38,349.55s6.18,2.28,4.35,7.65-21.38,14.23-21.38,14.23-8.19-7.5-.67-19.7S85.22,345.7,85.38,349.55Z" style="isolation:isolate;opacity:0.2"></path><path d="M104.6,338.5s-4.39-.47-4-3.14,17.06-9.55,26.91,1.57c0,0-6.31,10.84-15.43,11S104.6,338.5,104.6,338.5Z" style="isolation:isolate;opacity:0.2"></path><path d="M109.1,356.35s-3-2.44.24-3.63,19.3-.86,19.47,15c0,0-18.68,3.11-21-2.94S109.1,356.35,109.1,356.35Z" style="isolation:isolate;opacity:0.2"></path><polygon points="82.06 417.44 111.04 417.44 114.17 385.72 78.94 385.72 82.06 417.44" style="fill:#407BFF"></polygon><polygon points="82.06 417.44 111.04 417.44 114.17 385.72 78.94 385.72 82.06 417.44" style="fill:#fff;isolation:isolate;opacity:0.5"></polygon><rect x="77.39" y="382.22" width="38.32" height="7" transform="translate(193.1 771.43) rotate(180)" style="fill:#407BFF"></rect><rect x="77.39" y="382.22" width="38.32" height="7" transform="translate(193.1 771.43) rotate(180)" style="fill:#fff;isolation:isolate;opacity:0.2"></rect></g><g id="freepik--character-2--inject-119"><path d="M389.64,348.47V347H292.76v1.48h0v69h3V370.9h90.88v46.25h3V348.47ZM374.5,350l-33.3,7.42L307.9,350Zm-78.74.37,38.54,8.58-38.54,8.58ZM307.9,367.9l33.3-7.42,33.3,7.42Zm40.2-9,38.54-8.58v17.16Z" style="fill:#263238"></path><path d="M389.64,348.47V347H292.76v1.48h0v69h3V370.9h90.88v46.25h3V348.47ZM374.5,350l-33.3,7.42L307.9,350Zm-78.74.37,38.54,8.58-38.54,8.58ZM307.9,367.9l33.3-7.42,33.3,7.42Zm40.2-9,38.54-8.58v17.16Z" style="fill:#fff;opacity:0.2"></path><path d="M301.1,329.79H381.3a4.84,4.84,0,0,1,4.84,4.84v5.9a0,0,0,0,1,0,0H296.26a0,0,0,0,1,0,0v-5.9A4.84,4.84,0,0,1,301.1,329.79Z" style="fill:#407BFF"></path><rect x="291.84" y="338.69" width="98.73" height="8.74" rx="1.63" style="fill:#263238"></rect><rect x="291.84" y="338.69" width="98.73" height="8.74" rx="1.63" style="fill:#fff;opacity:0.30000000000000004"></rect><path d="M331.24,275.5l.75,10s-10.08,3.36-12.49,1.11S318.86,278.88,331.24,275.5Z" style="fill:#e4897b"></path><path d="M336.77,273.29l-2.23,12.19-.27,1.48-7.57.92-1,.12-1.22-9.28S331,274,336.77,273.29Z" style="fill:#407BFF"></path><path d="M334.54,285.48l-.27,1.48-7.57.92c1.37-4.32,6.52-7.05,6.52-7.05A7.66,7.66,0,0,1,334.54,285.48Z" style="isolation:isolate;opacity:0.2"></path><path d="M364.69,294.35v0c-.25,3.75-.64,8-1.21,12.35-.33,2.62-.73,5.31-1.21,8l-37.76-9.85a145.65,145.65,0,0,0,5.91-21.39c.25-1.41.43-2.77.54-4a6.81,6.81,0,0,1,5.81-6.17,41.89,41.89,0,0,1,10.92.09c12.29,1.5,17.57,5.26,17.57,5.26S365.35,285.14,364.69,294.35Z" style="fill:#407BFF"></path><path d="M345.8,270.62a5.57,5.57,0,0,1-.81,4.25,6.43,6.43,0,0,1-.47.63,8,8,0,0,1-.88.86h0a6.94,6.94,0,0,0,7.8,2.46l4.72-1.58,1-.36a10.41,10.41,0,0,1-1.21-8.43,14,14,0,0,1,1.85-4.08l-9.38,1.83-4.27.83A9.21,9.21,0,0,1,345.8,270.62Z" style="fill:#e4897b"></path><path d="M345.8,270.62a5.57,5.57,0,0,1-.81,4.25,6.43,6.43,0,0,1-.47.63c5.14-.07,9.3-4.3,11.47-7.05a14,14,0,0,1,1.85-4.08l-9.38,1.83-4.27.83A9.21,9.21,0,0,1,345.8,270.62Z" style="isolation:isolate;opacity:0.2"></path><path d="M343.12,240.3s-10.54,6.93-.7,16.72C353.54,268.08,343.12,240.3,343.12,240.3Z" style="fill:#263238"></path><path d="M365.18,256c-1.34,7.42-6.44,15.25-12.76,15.7-5.67.41-9.57,0-12.12-1.57-2.29-1.38-3.49-3.65-3.9-7-.07-.57-.11-1.17-.14-1.81-.35-7.72,3.64-19.44,13.28-20.65S367,245.73,365.18,256Z" style="fill:#e4897b"></path><path d="M341.45,245.16a20.85,20.85,0,0,0,11,1.85s4.47,1.23,2.93,6.25,4.11,8.44,3.61,15.25c0,0,7.16-.09,9.86-14.84,2-10.74-7-15.95-16.66-16.79C344.05,236.17,337.72,241.38,341.45,245.16Z" style="fill:#263238"></path><path d="M347.88,256.34c-.14,1-.76,1.65-1.38,1.55s-1-.94-.86-1.89.75-1.63,1.37-1.54S348,255.4,347.88,256.34Z" style="fill:#263238"></path><path d="M349.47,252.69a.42.42,0,0,1,0,.27.43.43,0,0,1-.54.28,4.27,4.27,0,0,1-2.86-2.7.43.43,0,0,1,.3-.53h0a.44.44,0,0,1,.53.29h0a3.39,3.39,0,0,0,2.32,2.11A.44.44,0,0,1,349.47,252.69Z" style="fill:#263238"></path><path d="M342.13,249a.43.43,0,0,1,.24.1.44.44,0,0,1,0,.61,4.22,4.22,0,0,1-3.76,1.15.42.42,0,0,1-.31-.52h0a.44.44,0,0,1,.52-.31h0a3.38,3.38,0,0,0,3-1A.46.46,0,0,1,342.13,249Z" style="fill:#263238"></path><path d="M342.18,256.41l-.68,4.12a5.15,5.15,0,0,1-2.74-1.35A12,12,0,0,0,342.18,256.41Z" style="fill:#de5753"></path><path d="M356.27,259.65s2.55-4.34,4.74-2.6.75,9.34-2.77,8.9S354.37,261.92,356.27,259.65Z" style="fill:#e4897b"></path><path d="M343.37,264.42h-.07a.28.28,0,0,1-.2-.35s1.13-3.83,4.46-2.89a.29.29,0,0,1,.2.35.31.31,0,0,1-.36.2c-2.78-.8-3.71,2.36-3.75,2.5A.29.29,0,0,1,343.37,264.42Z" style="fill:#263238"></path><path d="M350.85,236.82c-4.44,0-14.26,2.63-13.54,11.6l1.19-2.11.8,2.69,1.9-2.62,1.69,3.23,1.8-3.25.6,3.25,1.47-2.31,1.5,2.31,3-1.59,1.32,2.31v-1.91s2.91,3.82,6.57,2.54S350.85,236.82,350.85,236.82Z" style="fill:#263238"></path><path d="M338.54,254.45s1.55-.74,1.93,1.29c0,0-1-1.16-2-.86Z" style="fill:#263238"></path><path d="M345.61,266l-5.31,4.19c-2.29-1.38-3.49-3.65-3.9-7l1.14-2.21,7.15.41Z" style="isolation:isolate;opacity:0.2"></path><path d="M364.69,294.37c-.25,3.75-.64,8-1.21,12.35-.33,2.62-.73,5.31-1.21,8l-37.76-9.85a145.65,145.65,0,0,0,5.91-21.39h0c4.28-4.95,12.55-6.12,12.55-6.12,3.19,5.34,10.26,2.37,10.26,2.37,2.77,3.37,4.75,13.8,4.75,13.8Z" style="fill:#fff;opacity:0.6000000000000001"></path><path d="M364.7,294.35c-.26,3.76-.65,8-1.22,12.38-8.35-5.92-3.72-18.73-3.72-18.73C360.62,291.4,363.88,293.8,364.7,294.35Z" style="isolation:isolate;opacity:0.2"></path><path d="M362.67,312.4l-37.26-10.16c-.25.38-.48.75-.71,1.12l-10.24,2.16s-7,18.08.45,23.61c3.15,2.34,10.39.8,13.81.86,2.79,1.31,6,.29,10.12,1.35C365.46,338.16,362.67,312.4,362.67,312.4Z" style="fill:#263238"></path><path d="M324.11,324.35s-8.51-1.55-13.19-2.18a15.87,15.87,0,0,0-2.91-.26c-.24,0-1.95.61-4.56,1.49-10.85,3.64-37.18,12.72-37.18,12.72l-2.81-4.92s26.68-17.28,38.35-22.14l.84-.33.71-.27.23-.08.36-.12,1.25-.44,1-.34.88-.27c.39-.13.79-.24,1.19-.36l1.22-.31,1-.23a37.49,37.49,0,0,1,12.32-.52A22.27,22.27,0,0,1,324,308C325.66,311.59,328.08,318.75,324.11,324.35Z" style="fill:#e4897b"></path><path d="M262.67,326.85a.86.86,0,0,1,.73-.55.63.63,0,0,1,.57.15c.64.63.24,2.95.2,3.21a.19.19,0,0,1-.13.13.15.15,0,0,1-.16-.06,8.78,8.78,0,0,1-1-1.57A1.82,1.82,0,0,1,262.67,326.85Zm1.05-.16a.31.31,0,0,0-.28-.07.59.59,0,0,0-.47.34c-.15.43.19,1.26.91,2.28.13-.93.18-2.21-.16-2.55Z" style="fill:#407BFF"></path><path d="M265.19,327.13a.83.83,0,0,1,.87.28.59.59,0,0,1,.21.54c-.14.89-2.26,1.91-2.5,2a.19.19,0,0,1-.18,0,.17.17,0,0,1,0-.17,8.23,8.23,0,0,1,.71-1.71A1.78,1.78,0,0,1,265.19,327.13Zm.74.76a.34.34,0,0,0-.1-.27.63.63,0,0,0-.55-.19c-.44.13-.92.89-1.33,2.07.84-.44,1.91-1.14,2-1.61Z" style="fill:#407BFF"></path><path d="M265,329.9l3.19,7a.5.5,0,0,1-.22.66h0l-5.4,2.86a1.21,1.21,0,0,1-1.6-.58c-1.07-2.47-1.46-3.7-2.84-6.79a64.15,64.15,0,0,1-3.48-8.33c-.77-2.77,2-3.45,2.56-2.35a18.91,18.91,0,0,0,6.94,6.61A2,2,0,0,1,265,329.9Z" style="fill:#263238"></path><path d="M324.11,324.35s-8.51-1.55-13.19-2.18a15.87,15.87,0,0,0-2.91-.26c-.24,0-1.95.61-4.56,1.49a42.41,42.41,0,0,1,3.7-7.81C309.53,312.48,324,308,324,308,325.66,311.59,328.08,318.75,324.11,324.35Z" style="isolation:isolate;opacity:0.2"></path><path d="M312.47,357.37s.74-45.49,11.32-48.66c6.64-2,12.45.21,24.34,3.71,0,0,1.71,9.82-3.8,17.59,0,0-14.6-3.95-15.87-3.7s-9.54,32.58-9.54,32.58Z" style="fill:#e4897b"></path><path d="M308.21,354a.83.83,0,0,1,0-.91.63.63,0,0,1,.48-.35c.89-.09,2.42,1.7,2.59,1.9a.17.17,0,0,1,0,.18.14.14,0,0,1-.15.08,8.06,8.06,0,0,1-1.83-.24A1.81,1.81,0,0,1,308.21,354Zm.54-.91a.29.29,0,0,0-.23.17.6.6,0,0,0,0,.58c.23.39,1.09.66,2.34.75-.64-.7-1.59-1.55-2.07-1.5Z" style="fill:#407BFF"></path><path d="M310,352.23a.82.82,0,0,1,.76-.49.59.59,0,0,1,.56.19c.59.68,0,3,0,3.22a.16.16,0,0,1-.29,0,8,8,0,0,1-.86-1.63A1.8,1.8,0,0,1,310,352.23Zm1.05-.08a.28.28,0,0,0-.27-.09.6.6,0,0,0-.5.3c-.18.42.1,1.28.75,2.34.2-.92.34-2.19,0-2.55Z" style="fill:#407BFF"></path><path d="M312,354.17l7.43,2a.49.49,0,0,1,.37.59h0l-1.23,6a1.21,1.21,0,0,1-1.48.86c-2.58-.74-3.77-1.23-7-2.14a64.32,64.32,0,0,1-8.65-2.63c-2.62-1.18-1.38-3.74-.16-3.47a18.8,18.8,0,0,0,9.51-1.13A2,2,0,0,1,312,354.17Z" style="fill:#263238"></path><path d="M366.5,284.35s6.33,10.46,7.51,43.58l-3.76.53s-4.74-26.16-9.09-35.66S366.5,284.35,366.5,284.35Z" style="fill:#e4897b"></path><path d="M365.26,278.64c4.7,3.34,6.62,14.78,6.62,14.78L361,299.94s-4.6-5.89-3.22-12.71S362.87,276.94,365.26,278.64Z" style="fill:#407BFF"></path><path d="M318.57,284.17c-1-8.51,16.85-19.8,16.85-19.8l2.12,2.82s-9.7,9.57-12.26,16.5Z" style="fill:#e4897b"></path><polygon points="333.48 266.06 337.73 261.3 344.3 261.35 345.43 266.04 333.81 269.6 333.48 266.06" style="fill:#e4897b"></polygon><path d="M370.25,328.46a8.42,8.42,0,0,0,.05,1.33c.32,1.16,9.25,1.25,9.25,1.25l2.7,2.38,3.56-2.05s-4.54-5.6-5.34-5.6-8.59.66-8.59.66Z" style="fill:#e4897b"></path><path d="M310.62,306.74c-.26.36-1.09-.37-.53.86s.05.84-.6.83-1.12,1.14-1.68.8a1,1,0,0,0-1.41.39c-.19.47-.84,1.05-1.43.41s-1.41.34-2.13-.15a3.83,3.83,0,0,1-1-.82l.84-.33.71-.27.23-.08.36-.12,1.25-.44,1-.34.88-.27c.39-.13.79-.24,1.19-.36l1.22-.31,1-.23C310.64,306.43,310.74,306.58,310.62,306.74Z" style="fill:#407BFF"></path><path d="M310.62,306.74c-.26.36-1.09-.37-.53.86s.05.84-.6.83-1.12,1.14-1.68.8a1,1,0,0,0-1.41.39c-.19.47-.84,1.05-1.43.41s-1.41.34-2.13-.15a3.83,3.83,0,0,1-1-.82l.84-.33.71-.27.23-.08.36-.12,1.25-.44,1-.34.88-.27c.39-.13.79-.24,1.19-.36l1.22-.31,1-.23C310.64,306.43,310.74,306.58,310.62,306.74Z" style="fill:#fff;isolation:isolate;opacity:0.4"></path><path d="M311.11,307.39l-1.68-.65.1-.2-1.22.31.42.16-.33.69-1.28-.49-.88.27-.31.62-.73-.28-1.25.44-.18.36-.41-.16-.71.27.9.34-.63,1.25a.24.24,0,0,0,.12.33.2.2,0,0,0,.11,0,.24.24,0,0,0,.22-.14l.65-1.29,1.13.43-.32.64a.25.25,0,0,0,.11.33l.11,0a.25.25,0,0,0,.23-.14l.34-.68,1.51.58.09,0a.25.25,0,0,0,.23-.16.25.25,0,0,0-.14-.33l-1.47-.56.34-.68,1.43.55-.15.3a.26.26,0,0,0,.11.34l.11,0a.24.24,0,0,0,.22-.14l.18-.34.65.24a.15.15,0,0,0,.09,0,.25.25,0,0,0,.23-.16.24.24,0,0,0-.14-.32l-.61-.23.34-.68,1.69.64.09,0a.25.25,0,0,0,.23-.16.25.25,0,0,0-.14-.33l-1.65-.62.34-.69,1.73.66a.15.15,0,0,0,.09,0,.25.25,0,0,0,.23-.16A.25.25,0,0,0,311.11,307.39Zm-5.74,1.84-1.13-.43.34-.68,1.13.43Zm2.46-.4-1.43-.55.34-.68,1.43.55Z" style="fill:#407BFF"></path></g><g id="freepik--Ball--inject-119"><circle cx="403.21" cy="398.62" r="18.82" style="fill:#407BFF"></circle><g style="isolation:isolate;opacity:0.7000000000000001"><circle cx="403.21" cy="398.62" r="18.82" style="fill:#fff"></circle></g><path d="M421.63,394.74c-.07-.34-.15-.68-.24-1a18.42,18.42,0,0,0-2.42-5.4l-3.59,8.06a53.75,53.75,0,0,1-10.19,2.52l-7.51-5.46A39.56,39.56,0,0,1,399.74,383l6.19-3a18.83,18.83,0,0,0-2.72-.2,16.49,16.49,0,0,0-2.23.14c-.4,0-.79.1-1.18.17a17.91,17.91,0,0,0-3.72,1.09l2.3,2.42.1-.05a41.36,41.36,0,0,0-1.8,9.87l-7.23,5.26a22.57,22.57,0,0,1-4.88-2.64,10.27,10.27,0,0,0-.12,1.1,24.73,24.73,0,0,0,4.15,2.25l3.16,9.72a25.45,25.45,0,0,0-1.21,3.42c.28.26.57.5.87.73a25.34,25.34,0,0,1,1.32-3.85h9.08a29.5,29.5,0,0,0,6.22,4.23l-1,3.38a18.67,18.67,0,0,0,4.8-1.72c.4-.21.79-.43,1.17-.67a16.84,16.84,0,0,0,2-1.38l-5,.19a29.61,29.61,0,0,1-7.29-4.64l2.92-9a56.5,56.5,0,0,0,9.47-2.3l6.37,5.75a18.6,18.6,0,0,0,.59-4.69A19.05,19.05,0,0,0,421.63,394.74Z" style="fill:#407BFF"></path><g style="opacity:0.1"><path d="M421.63,394.74c-.07-.34-.15-.68-.24-1a18.42,18.42,0,0,0-2.42-5.4,18.86,18.86,0,0,0-15.76-8.53,16.49,16.49,0,0,0-2.23.14c-.4,0-.79.1-1.18.17a17.91,17.91,0,0,0-3.72,1.09,18.8,18.8,0,0,0-11.51,14.86,10.27,10.27,0,0,0-.12,1.1c0,.48-.06,1-.06,1.46a18.79,18.79,0,0,0,6.16,13.93c.28.26.57.5.87.73a18.7,18.7,0,0,0,11.79,4.16,19.05,19.05,0,0,0,3.88-.4,18.67,18.67,0,0,0,4.8-1.72c.4-.21.79-.43,1.17-.67a16.84,16.84,0,0,0,2-1.38,18.81,18.81,0,0,0,6.42-10,18.6,18.6,0,0,0,.59-4.69A19.05,19.05,0,0,0,421.63,394.74Zm-18.39,16.64a15.55,15.55,0,1,1,15.54-15.54A15.54,15.54,0,0,1,403.24,411.38Z"></path></g></g><g id="freepik--character-1--inject-119"><path d="M252.13,280.36c1.89,4.44,3.84,9,5.83,13.36,1,2.17,2,4.35,3.12,6.27a23.13,23.13,0,0,0,1.52,2.42c.1.12.17.2.16.22h0a.24.24,0,0,0-.1-.06,2,2,0,0,0-.42-.19c-.46-.13-.2,0,.12,0a15.65,15.65,0,0,0,2.86-.2c1.08-.15,2.22-.37,3.37-.62,2.31-.48,4.66-1.1,7-1.73,4.7-1.3,9.49-2.7,14.21-4.11l2,4.79a137.9,137.9,0,0,1-13.73,6.66c-2.36,1-4.77,1.9-7.28,2.74-1.26.4-2.55.78-3.91,1.11a23,23,0,0,1-4.57.69,9.24,9.24,0,0,1-3.57-.52,7.34,7.34,0,0,1-1.26-.61l-.48-.33-.4-.3a13.18,13.18,0,0,1-1.18-1.09,26.16,26.16,0,0,1-2.83-3.66,78.38,78.38,0,0,1-4-6.92,140.81,140.81,0,0,1-6.28-14Z" style="fill:#ffb573"></path><path d="M292.24,294.58l7-1-4.3,7.62s-5.52-.07-7.18-3.24l.44-.72A5.56,5.56,0,0,1,292.24,294.58Z" style="fill:#ffb573"></path><polygon points="305.28 295.81 302.68 302.66 294.98 301.19 299.29 293.57 305.28 295.81" style="fill:#ffb573"></polygon><path d="M214.13,259.82s19.45.75,37.63,18.86c0,0-9.24,26.54-18,39.11l-37.28-6.31S207.26,294.17,214.13,259.82Z" style="fill:#263238"></path><polygon points="172.84 402.07 203.78 400.94 198.16 412.3 167.06 406.62 172.84 402.07" style="fill:#ebb376"></polygon><path d="M176.24,401.52c.53.61-7.19,6.77-7.19,6.77s-8.64-.48-13.93,2.46-5.23-1.89-.36-6.32l12.05-11C170.27,390.32,170.79,395.23,176.24,401.52Z" style="fill:#263238"></path><path d="M173.65,404.33h.11l.08,0h0l.07.05h0l.06.09c.05.11,1,2.36.36,3.66a1.53,1.53,0,0,1-1,.84.92.92,0,0,1-1-.18c-.32-.4-.15-1.26.15-2.12a4,4,0,0,1-1.8,1.31,1.07,1.07,0,0,1-.84-.14,1,1,0,0,1-.53-.94,1.4,1.4,0,0,1,.49-.76A12.34,12.34,0,0,1,173.65,404.33Zm-.55.73c-1.49.52-3.19,1.33-3.28,1.93,0,.05,0,.21.3.43a.55.55,0,0,0,.44.06,2.34,2.34,0,0,0,1-.62A12.17,12.17,0,0,0,173.1,405.06Zm.76,2.86a4.31,4.31,0,0,0-.18-2.7c-.71,1.39-1.23,2.91-1,3.25.08.11.34,0,.48,0a1,1,0,0,0,.41-.23A1.17,1.17,0,0,0,173.86,407.92Z" style="fill:#407BFF"></path><polygon points="179.63 409.39 186.01 393.7 205.82 395.52 203.51 413.94 179.63 409.39" style="fill:#407BFF"></polygon><polygon points="179.63 409.39 186.01 393.7 205.82 395.52 203.51 413.94 179.63 409.39" style="opacity:0.2"></polygon><polygon points="157.44 405.63 188.38 404.5 182.75 415.86 151.66 410.18 157.44 405.63" style="fill:#ebb376"></polygon><path d="M160.84,405.08c.53.61-7.19,6.77-7.19,6.77s-8.64-.48-13.93,2.46-5.24-1.89-.36-6.32l12-11C154.87,393.88,155.39,398.79,160.84,405.08Z" style="fill:#263238"></path><path d="M152,411.65h.1s.06,0,.08,0h0l.07,0h0a.24.24,0,0,1,.06.09c.05.12,1,2.36.36,3.67a1.52,1.52,0,0,1-1,.83.87.87,0,0,1-1-.18c-.33-.4-.16-1.26.15-2.11a4.09,4.09,0,0,1-1.8,1.31,1.09,1.09,0,0,1-.84-.14,1,1,0,0,1-.53-.94,1.4,1.4,0,0,1,.48-.76A12.44,12.44,0,0,1,152,411.65Zm-.56.73c-1.49.52-3.19,1.34-3.28,1.93,0,.06,0,.21.3.43a.57.57,0,0,0,.45.07,2.6,2.6,0,0,0,1-.62A12.14,12.14,0,0,0,151.42,412.38Zm.76,2.87a4.33,4.33,0,0,0-.17-2.71c-.71,1.4-1.24,2.91-1,3.26.09.1.34.05.48,0a1.08,1.08,0,0,0,.41-.22A1,1,0,0,0,152.18,415.25Z" style="fill:#407BFF"></path><path d="M287.19,401.31c-2.24,9.42-9.16,12.44-16.12,12.92-8.45.59-16.92-2.61-16.92-2.61s-.77,3.21-15.7,4.76c-21.26,2.2-66.78.3-66.78.3l3.61-13.61,44.36-9s-33.19-28.92-31-53.44a97.78,97.78,0,0,1,7-27.1c.27-.68.56-1.36.84-2l37.28,6.31.49,5.32,4.2,10.64S292,381.25,287.19,401.31Z" style="fill:#407BFF"></path><polygon points="197.06 312.28 195.69 316.23 232.97 322.63 233.07 318.05 197.06 312.28" style="isolation:isolate;opacity:0.5"></polygon><path d="M217.66,316.4l-.37,4.13a.84.84,0,0,0,.74.91l5.48.63a.84.84,0,0,0,.93-.75l.4-4.06a.83.83,0,0,0-.73-.91l-5.51-.7A.83.83,0,0,0,217.66,316.4Z" style="fill:#fff"></path><polygon points="208.12 313.76 206.75 318.43 205.41 318.17 206.56 313.45 208.12 313.76" style="fill:#407BFF"></polygon><polygon points="228.79 317.06 228.34 322.15 229.57 322.39 229.98 317.3 228.79 317.06" style="fill:#407BFF"></polygon><path d="M271.07,414.23c-8.45.59-16.92-2.61-16.92-2.61s3.92-5.17,2.86-14.09-28.37-51-29.16-52.24c1.18,1.09,38.76,36,43.81,53.42C273.58,405.33,272.81,410.44,271.07,414.23Z" style="opacity:0.2"></path><path d="M246.14,231s8.68-5.25,15.92.35,10.06,31.47-2.74,37.6-36.74-9.15-36.74-9.15,6.72-25.52,12.48-29A10.66,10.66,0,0,1,246.14,231Z" style="fill:#263238"></path><path d="M248.61,275.92c-2.1,2.47-9.4,13.12-18.35,9.4-10.2-4.23-7.95-22.09-7.68-24.49A82.15,82.15,0,0,1,248.61,275.92Z" style="fill:#ffb573"></path><path d="M239.35,269c-.82,1.9,0,2.84,0,2.84a4.2,4.2,0,0,1-6.15,2.49C227.6,271,229,263,229,263c5.1.27,8.25-4,9.73-6.77a15.34,15.34,0,0,0,1-2.21l5.71,8.77a31,31,0,0,0-3.42,2.7A11,11,0,0,0,239.35,269Z" style="fill:#ffb573"></path><path d="M245.47,262.78a31,31,0,0,0-3.42,2.7,11,11,0,0,0-2.7,3.5c-4.49-2.2-.6-12.68-.6-12.68v-.08a15.34,15.34,0,0,0,1-2.21Z" style="isolation:isolate;opacity:0.2"></path><path d="M252.57,236.9c8.58,2.55,10,8,8,17-2.51,11.29-7.3,18.41-17.33,12.85C229.59,259.21,238.31,232.65,252.57,236.9Z" style="fill:#ffb573"></path><path d="M255.13,251.77a18.81,18.81,0,0,0,1.44,4.31,2.44,2.44,0,0,1-2.55.29Z" style="fill:#d58745"></path><path d="M250.09,249.51c-.2.71-.74,1.18-1.21,1.05s-.7-.81-.51-1.52.74-1.18,1.21-1S250.28,248.8,250.09,249.51Z" style="fill:#263238"></path><path d="M249.37,248l1.71-.19S250,248.87,249.37,248Z" style="fill:#263238"></path><path d="M259,251.76c-.19.71-.73,1.19-1.2,1.06s-.7-.81-.51-1.52.73-1.18,1.21-1.05S259.15,251.05,259,251.76Z" style="fill:#263238"></path><path d="M258.24,250.23,260,250S258.83,251.13,258.24,250.23Z" style="fill:#263238"></path><path d="M247.66,244.14a.36.36,0,0,1-.31-.16.38.38,0,0,1,.09-.53,5,5,0,0,1,4.48-.27.37.37,0,0,1,.19.5.38.38,0,0,1-.5.2,4.26,4.26,0,0,0-3.73.2A.46.46,0,0,1,247.66,244.14Z" style="fill:#263238"></path><path d="M261.3,247.19a.41.41,0,0,1-.3-.14,3.79,3.79,0,0,0-2.85-1.66.38.38,0,0,1-.4-.37.39.39,0,0,1,.37-.39,4.53,4.53,0,0,1,3.48,2,.38.38,0,0,1-.06.53A.37.37,0,0,1,261.3,247.19Z" style="fill:#263238"></path><path d="M238.87,248.57s6.12-5.86,7.13-11.48c0,0,19.09-1.89,14.78,15.63,0,0,6.23-14.84-8.42-19.57S231.33,250,237,258.72C237,258.72,235.08,252.24,238.87,248.57Z" style="fill:#263238"></path><path d="M239.74,250.8a3.94,3.94,0,0,0-3-4.65c-2.75-.5-5.64,4.58.58,7.86C238.18,254.49,239,253.72,239.74,250.8Z" style="fill:#ffb573"></path><path d="M254,259.3a27.4,27.4,0,0,0-2.23,3.23l-.65-.25c-2.91-1.16-3.88-2.67-4.07-4a4,4,0,0,1,.23-1.91,3.68,3.68,0,0,1,.49-1c1.17,1.54,3.81,2.84,5.25,3.47C253.62,259.15,254,259.3,254,259.3Z" style="fill:#263238"></path><path d="M253,258.88l-.69.94c-2.74-1.1-4.53-2.25-5.05-3.43a3.68,3.68,0,0,1,.49-1C249,257,251.59,258.25,253,258.88Z" style="fill:#fff"></path><path d="M251.13,262.28c-2.91-1.16-3.88-2.67-4.07-4a10.06,10.06,0,0,1,3,1.93A3.77,3.77,0,0,1,251.13,262.28Z" style="fill:#de5753"></path><path d="M224,254.77c-.95,3.28-3.76,9.83.63,16.47s-1.41,14.87-1.41,14.87,8-2.23,8.31-9.89a10.57,10.57,0,0,1-.31,7.66s5.58-3,3.21-10.33-2.82-11.45-1.22-13.58S224,254.77,224,254.77Z" style="fill:#263238"></path><path d="M214.64,274.19c-3.35,3.34-6.77,6.91-9.87,10.45-1.54,1.78-3,3.6-4.27,5.38a21.77,21.77,0,0,0-1.54,2.53,8.65,8.65,0,0,0-.42.92c-.08.19,0,.28-.12-.14a2.34,2.34,0,0,0-.13-.36,1.15,1.15,0,0,0-.1-.23c0-.05,0,0,0,0v0a2.38,2.38,0,0,0,.16.32,5.1,5.1,0,0,0,.61.78,11.29,11.29,0,0,0,2.1,1.74,34.94,34.94,0,0,0,5.89,3c2.14.91,4.4,1.7,6.69,2.44s4.67,1.43,7,2.06l-.65,5.16a68.62,68.62,0,0,1-15.53-2.11,38.58,38.58,0,0,1-7.82-2.93,21.16,21.16,0,0,1-4-2.65,14,14,0,0,1-1.89-2,9.89,9.89,0,0,1-.85-1.26l-.1-.17a2,2,0,0,1-.12-.23q-.17-.33-.3-.66A8.34,8.34,0,0,1,189,295a9.5,9.5,0,0,1,.11-3.85,16.76,16.76,0,0,1,.83-2.61,31.72,31.72,0,0,1,2.09-4,61.72,61.72,0,0,1,4.72-6.6,114.51,114.51,0,0,1,10.63-11.38Z" style="fill:#ffb573"></path><path d="M251.76,278.68c2.91,2.95,6.34,13.44,6.34,13.44s-5.82,8-14.55,4.95S251.76,278.68,251.76,278.68Z" style="fill:#263238"></path><path d="M214.13,259.82c-6-.74-15.37,11.89-15.37,11.89s5.61,8.88,13.3,10.59S214.13,259.82,214.13,259.82Z" style="fill:#263238"></path><path d="M304.24,305.1s2.87-.79,3.93,0,.19,2.46-3.08,3.21S302,306.68,304.24,305.1Z" style="fill:#407BFF"></path><path d="M304.24,305.1s2.87-.79,3.93,0,.19,2.46-3.08,3.21S302,306.68,304.24,305.1Z" style="fill:#fff;opacity:0.6000000000000001"></path><path d="M292.32,293.86c.64,0,11.57,9.81,11.57,9.81s2.3-.25,2.51,1.09h-.8s-.07-.84-2.15-.69L292,294.67Z" style="fill:#263238"></path><path d="M305.28,307a4.9,4.9,0,0,1-1.83-.73c-.5-.47-.45-1.85-.45-1.85l-10.68-10.6-.56.81,10.84,10.08s-.44,1.71.45,2.29A2.73,2.73,0,0,0,305.28,307Z" style="fill:#263238"></path><path d="M305.28,307a4.9,4.9,0,0,1-1.83-.73c-.5-.47-.45-1.85-.45-1.85l-10.68-10.6-.56.81,10.84,10.08s-.44,1.71.45,2.29A2.73,2.73,0,0,0,305.28,307Z" style="fill:#fff;opacity:0.2"></path><path d="M229.06,299.57h4.79a1.42,1.42,0,0,1,1.42,1.42v12.94a0,0,0,0,1,0,0h-7.63a0,0,0,0,1,0,0V301A1.42,1.42,0,0,1,229.06,299.57Z" transform="translate(55.97 -35.12) rotate(9.86)" style="fill:#407BFF"></path><path d="M229.06,299.57h4.79a1.42,1.42,0,0,1,1.42,1.42v12.94a0,0,0,0,1,0,0h-7.63a0,0,0,0,1,0,0V301A1.42,1.42,0,0,1,229.06,299.57Z" transform="translate(55.97 -35.12) rotate(9.86)" style="fill:#fff;opacity:0.6000000000000001"></path><rect x="230.88" y="295.37" width="4.34" height="4.34" transform="translate(54.41 -35.52) rotate(9.86)" style="fill:#407BFF"></rect><path d="M222.43,302.78l7.12,0-5.36,6.91s-5.46-.86-6.64-4.23l.54-.66A5.58,5.58,0,0,1,222.43,302.78Z" style="fill:#ffb573"></path><polygon points="235.16 305.87 231.59 312.28 224.19 309.71 229.55 302.8 235.16 305.87" style="fill:#ffb573"></polygon></g></svg>